<mxfile host="65bd71144e">
    <diagram id="RYLhh94t3iqb8V7wHmmX" name="Page-1">
        <mxGraphModel dx="710" dy="575" grid="1" gridSize="10" guides="1" tooltips="1" connect="1" arrows="1" fold="1" page="0" pageScale="1" pageWidth="827" pageHeight="1169" math="0" shadow="0">
            <root>
                <mxCell id="0"/>
                <mxCell id="1" parent="0"/>
                <mxCell id="16" value="Проверить пинкод" style="endArrow=classic;html=1;dashed=1;" edge="1" parent="1">
                    <mxGeometry x="0.0769" y="10" width="50" height="50" relative="1" as="geometry">
                        <mxPoint x="410" y="440" as="sourcePoint"/>
                        <mxPoint x="270" y="440" as="targetPoint"/>
                        <mxPoint as="offset"/>
                    </mxGeometry>
                </mxCell>
                <mxCell id="2" value="Actor" style="shape=umlActor;verticalLabelPosition=bottom;verticalAlign=top;html=1;outlineConnect=0;" vertex="1" parent="1">
                    <mxGeometry x="120" y="80" width="40" height="80" as="geometry"/>
                </mxCell>
                <mxCell id="3" value="Банкомат" style="rounded=0;whiteSpace=wrap;html=1;" vertex="1" parent="1">
                    <mxGeometry x="240" y="80" width="60" height="80" as="geometry"/>
                </mxCell>
                <mxCell id="5" value="Сервер банка" style="rounded=0;whiteSpace=wrap;html=1;" vertex="1" parent="1">
                    <mxGeometry x="380" y="80" width="60" height="80" as="geometry"/>
                </mxCell>
                <mxCell id="6" value="" style="endArrow=none;dashed=1;html=1;entryX=0.5;entryY=0.5;entryDx=0;entryDy=0;entryPerimeter=0;" edge="1" parent="1" target="2">
                    <mxGeometry width="50" height="50" relative="1" as="geometry">
                        <mxPoint x="140" y="940" as="sourcePoint"/>
                        <mxPoint x="165" y="200" as="targetPoint"/>
                    </mxGeometry>
                </mxCell>
                <mxCell id="7" value="" style="endArrow=none;dashed=1;html=1;entryX=0.5;entryY=0.5;entryDx=0;entryDy=0;entryPerimeter=0;" edge="1" parent="1">
                    <mxGeometry width="50" height="50" relative="1" as="geometry">
                        <mxPoint x="270" y="940" as="sourcePoint"/>
                        <mxPoint x="269.5" y="160" as="targetPoint"/>
                    </mxGeometry>
                </mxCell>
                <mxCell id="8" value="" style="endArrow=none;dashed=1;html=1;entryX=0.5;entryY=0.5;entryDx=0;entryDy=0;entryPerimeter=0;" edge="1" parent="1">
                    <mxGeometry width="50" height="50" relative="1" as="geometry">
                        <mxPoint x="410" y="950" as="sourcePoint"/>
                        <mxPoint x="409.5" y="160" as="targetPoint"/>
                    </mxGeometry>
                </mxCell>
                <mxCell id="9" value="Вставьте карту" style="endArrow=classic;html=1;" edge="1" parent="1">
                    <mxGeometry x="0.0769" y="-10" width="50" height="50" relative="1" as="geometry">
                        <mxPoint x="270" y="200" as="sourcePoint"/>
                        <mxPoint x="140" y="200" as="targetPoint"/>
                        <mxPoint as="offset"/>
                    </mxGeometry>
                </mxCell>
                <mxCell id="12" value="Забери карту" style="endArrow=classic;html=1;" edge="1" parent="1">
                    <mxGeometry x="0.0769" y="10" width="50" height="50" relative="1" as="geometry">
                        <mxPoint x="140" y="250" as="sourcePoint"/>
                        <mxPoint x="270" y="250" as="targetPoint"/>
                        <mxPoint as="offset"/>
                    </mxGeometry>
                </mxCell>
                <mxCell id="13" value="Проверить&lt;br&gt;карту" style="endArrow=classic;html=1;edgeStyle=orthogonalEdgeStyle;rounded=0;" edge="1" parent="1">
                    <mxGeometry width="50" height="50" relative="1" as="geometry">
                        <mxPoint x="270" y="280" as="sourcePoint"/>
                        <mxPoint x="270" y="320" as="targetPoint"/>
                        <Array as="points">
                            <mxPoint x="330" y="280"/>
                            <mxPoint x="330" y="320"/>
                        </Array>
                    </mxGeometry>
                </mxCell>
                <mxCell id="14" value="Проверить пинкод" style="endArrow=classic;html=1;" edge="1" parent="1">
                    <mxGeometry x="0.0769" y="10" width="50" height="50" relative="1" as="geometry">
                        <mxPoint x="270" y="400" as="sourcePoint"/>
                        <mxPoint x="410" y="400" as="targetPoint"/>
                        <mxPoint as="offset"/>
                    </mxGeometry>
                </mxCell>
            </root>
        </mxGraphModel>
    </diagram>
</mxfile>